<?xml version="1.0" encoding="utf-8"?><!-- Uploaded to: SVG Repo, www.svgrepo.com, Generator: SVG Repo Mixer Tools -->
<svg version="1.1" id="Uploaded to svgrepo.com" xmlns="http://www.w3.org/2000/svg" xmlns:xlink="http://www.w3.org/1999/xlink" 
	 width="800px" height="800px" viewBox="0 0 32 32" xml:space="preserve">
<style type="text/css">
	.blueprint_een{fill:#111918;}
</style>
<path class="blueprint_een" d="M16,0C7.163,0,0,7.163,0,16s7.163,16,16,16s16-7.163,16-16S24.837,0,16,0z M16,30
	C8.28,30,2,23.72,2,16S8.28,2,16,2c7.72,0,14,6.28,14,14S23.72,30,16,30z M23,14h-5V9c0-0.552-0.448-1-1-1h-2c-0.552,0-1,0.448-1,1
	v5H9c-0.552,0-1,0.448-1,1v2c0,0.552,0.448,1,1,1h5v5c0,0.552,0.448,1,1,1h2c0.552,0,1-0.448,1-1v-5h5c0.552,0,1-0.448,1-1v-2
	C24,14.448,23.552,14,23,14z M23,17h-6v6h-2v-6H9v-2h6V9h2v6h6V17z M16,3C8.82,3,3,8.82,3,16s5.82,13,13,13s13-5.82,13-13
	S23.18,3,16,3z M16,28C9.383,28,4,22.617,4,16S9.383,4,16,4s12,5.383,12,12S22.617,28,16,28z"/>
</svg>